<?xml version="1.0" encoding="UTF-8"?>
<!DOCTYPE svg PUBLIC "-//W3C//DTD SVG 1.1//EN" "http://www.w3.org/Graphics/SVG/1.1/DTD/svg11.dtd">
<svg xmlns="http://www.w3.org/2000/svg" version="1.1" width="493px" height="512px" style="shape-rendering:geometricPrecision; text-rendering:geometricPrecision; image-rendering:optimizeQuality; fill-rule:evenodd; clip-rule:evenodd" xmlns:xlink="http://www.w3.org/1999/xlink">
<g><path style="opacity:1" fill="#1e1917" d="M 11.5,-0.5 C 167.167,-0.5 322.833,-0.5 478.5,-0.5C 477.25,1.93236 475.75,4.26569 474,6.5C 459.655,22.5137 445.655,38.8471 432,55.5C 431.667,161.833 431.333,268.167 431,374.5C 429.837,379.828 427.837,384.828 425,389.5C 421.167,393.333 417.333,397.167 413.5,401C 435.646,399.331 456.979,394.497 477.5,386.5C 475.96,392.907 473.46,399.241 470,405.5C 464.833,412.667 459.667,419.833 454.5,427C 467.302,432.989 479.969,439.155 492.5,445.5C 492.5,446.167 492.5,446.833 492.5,447.5C 470.318,459.064 446.818,467.397 422,472.5C 419.831,476.637 417.831,480.971 416,485.5C 410.476,491.497 403.976,495.164 396.5,496.5C 370.976,504.606 344.976,509.606 318.5,511.5C 305.833,511.5 293.167,511.5 280.5,511.5C 276.018,510.674 271.351,510.174 266.5,510C 261,508.5 257.5,505 256,499.5C 255.5,491.173 255.334,482.84 255.5,474.5C 249.167,474.5 242.833,474.5 236.5,474.5C 236.666,482.84 236.5,491.173 236,499.5C 234.5,505 231,508.5 225.5,510C 220.649,510.174 215.982,510.674 211.5,511.5C 199.167,511.5 186.833,511.5 174.5,511.5C 150.782,509.491 127.449,505.658 104.5,500C 101.382,499.127 98.3819,497.961 95.5,496.5C 88.0239,495.164 81.5239,491.497 76,485.5C 74.1693,480.971 72.1693,476.637 70,472.5C 45.182,467.397 21.682,459.064 -0.5,447.5C -0.5,446.833 -0.5,446.167 -0.5,445.5C 12.0315,439.155 24.6981,432.989 37.5,427C 27.3521,415.216 19.3521,402.05 13.5,387.5C 14.868,386.406 16.0347,386.74 17,388.5C 17.3333,388.167 17.6667,387.833 18,387.5C 37.3515,395.197 57.1848,399.697 77.5,401C 69.9256,395.017 64.4256,387.517 61,378.5C 60.6667,270.833 60.3333,163.167 60,55.5C 43.2214,37.2314 27.0547,18.5648 11.5,-0.5 Z M 129.5,418.5 C 146.167,418.5 162.833,418.5 179.5,418.5C 179.124,427.779 179.124,437.112 179.5,446.5C 162.952,447.08 146.619,445.58 130.5,442C 129.518,434.253 129.185,426.42 129.5,418.5 Z M 312.5,418.5 C 329.167,418.5 345.833,418.5 362.5,418.5C 362.815,426.42 362.482,434.253 361.5,442C 345.381,445.58 329.048,447.08 312.5,446.5C 312.876,437.112 312.876,427.779 312.5,418.5 Z"/></g>
<g><path style="opacity:1" fill="#6c4e2a" d="M 461.5,7.5 C 317.666,7.16706 173.999,7.50039 30.5,8.5C 29.9569,8.44001 29.6236,8.10667 29.5,7.5C 173.666,6.16744 317.666,6.16744 461.5,7.5 Z"/></g>
<g><path style="opacity:1" fill="#e9a54f" d="M 461.5,7.5 C 448.805,22.3595 436.305,37.3595 424,52.5C 423.5,73.164 423.333,93.8306 423.5,114.5C 304.833,114.5 186.167,114.5 67.5,114.5C 67.6666,93.8306 67.5,73.164 67,52.5C 54.5659,37.9075 42.3992,23.2408 30.5,8.5C 173.999,7.50039 317.666,7.16706 461.5,7.5 Z"/></g>
<g><path style="opacity:1" fill="#201917" d="M 102.5,15.5 C 112.392,14.7622 122.059,15.7622 131.5,18.5C 134.07,17.3657 136.736,16.5323 139.5,16C 146.5,15.3333 153.5,15.3333 160.5,16C 175.137,22.437 180.97,33.6037 178,49.5C 174.159,60.8503 168.492,71.1836 161,80.5C 151.602,90.5672 141.602,99.9005 131,108.5C 118.027,98.1938 106.36,86.5271 96,73.5C 89.1914,63.7106 85.0247,52.8773 83.5,41C 84.1252,37.4562 84.9585,33.9562 86,30.5C 90.4715,24.187 95.9715,19.187 102.5,15.5 Z"/></g>
<g><path style="opacity:1" fill="#1f1917" d="M 216.5,15.5 C 223.508,15.3337 230.508,15.5004 237.5,16C 240.264,16.5323 242.93,17.3657 245.5,18.5C 248.07,17.3657 250.736,16.5323 253.5,16C 271.283,11.4814 284.117,17.3147 292,33.5C 292.667,39.1667 292.667,44.8333 292,50.5C 290.205,56.0879 287.872,61.4212 285,66.5C 273.746,82.4221 260.413,96.4221 245,108.5C 225.744,93.9514 210.744,75.9514 200,54.5C 199.325,50.1349 198.492,45.8016 197.5,41.5C 199.228,29.4425 205.561,20.7758 216.5,15.5 Z"/></g>
<g><path style="opacity:1" fill="#d8241c" d="M 105.5,20.5 C 114.22,19.8448 122.72,20.8448 131,23.5C 141.998,19.4539 152.831,19.6206 163.5,24C 172.533,31.1082 175.367,40.2749 172,51.5C 167.245,64.1686 160.078,75.3353 150.5,85C 144.293,90.8755 137.793,96.3755 131,101.5C 117.251,91.0853 105.584,78.752 96,64.5C 92.3011,57.4034 89.8011,49.9034 88.5,42C 90.4803,31.8516 96.147,24.6849 105.5,20.5 Z"/></g>
<g><path style="opacity:1" fill="#d8241c" d="M 219.5,20.5 C 228.22,19.8448 236.72,20.8448 245,23.5C 256.407,19.2421 267.573,19.5754 278.5,24.5C 281.535,27.0369 284.035,30.0369 286,33.5C 288.21,43.363 286.877,52.6964 282,61.5C 277.44,69.3935 272.107,76.7268 266,83.5C 259.315,89.6862 252.482,95.6862 245.5,101.5C 228.122,89.6333 214.955,74.3 206,55.5C 200.876,43.6027 203.043,33.4361 212.5,25C 214.898,23.4758 217.231,21.9758 219.5,20.5 Z"/></g>
<g><path style="opacity:1" fill="#201a17" d="M 330.5,15.5 C 337.841,15.3337 345.174,15.5003 352.5,16C 355.053,16.7611 357.553,17.5944 360,18.5C 362.351,17.2857 364.851,16.4523 367.5,16C 384.334,11.6784 397.167,16.8451 406,31.5C 408,38.1667 408,44.8333 406,51.5C 396.074,74.4997 380.741,93.1664 360,107.5C 339.129,93.6437 323.796,75.3104 314,52.5C 309.719,38.7648 313.219,27.5981 324.5,19C 326.727,18.059 328.727,16.8923 330.5,15.5 Z"/></g>
<g><path style="opacity:1" fill="#d8241c" d="M 333.5,20.5 C 342.533,19.8834 351.367,20.8834 360,23.5C 375.74,16.8471 389.073,19.8471 400,32.5C 401.946,39.4907 401.946,46.4907 400,53.5C 391.371,73.3006 377.871,88.9672 359.5,100.5C 342.154,89.1214 328.987,74.1214 320,55.5C 314.408,39.7564 318.908,28.0897 333.5,20.5 Z"/></g>
<g><path style="opacity:1" fill="#27166e" d="M 68.5,121.5 C 125.5,121.5 182.5,121.5 239.5,121.5C 239.786,226.168 239.953,330.834 240,435.5C 236.454,430.287 231.954,426.12 226.5,423C 214.63,416.68 201.964,412.68 188.5,411C 162.815,410.852 137.149,410.185 111.5,409C 95.2914,406.151 82.1247,398.317 72,385.5C 70.6667,382.167 69.3333,378.833 68,375.5C 67.1697,290.763 67.3364,206.097 68.5,121.5 Z"/></g>
<g><path style="opacity:1" fill="#1f1917" d="M 158.5,139.5 C 172.817,138.238 182.65,144.238 188,157.5C 188.333,161.5 188.667,165.5 189,169.5C 196.451,173.409 201.285,179.409 203.5,187.5C 206.832,189.333 209.332,192 211,195.5C 213.583,206.417 214.916,217.417 215,228.5C 212.747,237.682 207.58,244.682 199.5,249.5C 197.834,255.684 194.167,260.184 188.5,263C 183.631,264.708 178.631,265.875 173.5,266.5C 174.348,270.476 174.182,274.476 173,278.5C 172.236,282.355 170.736,285.855 168.5,289C 180.303,278.736 193.636,270.403 208.5,264C 212.593,261.581 216.427,258.748 220,255.5C 216.796,268.014 213.796,280.681 211,293.5C 206.616,310.875 195.45,321.042 177.5,324C 170.315,324.406 163.315,325.573 156.5,327.5C 154.13,343.914 149.796,359.747 143.5,375C 137.199,378.375 131.199,377.875 125.5,373.5C 123.834,372.008 122.834,370.175 122.5,368C 127.19,358.755 131.357,349.255 135,339.5C 135.483,335.533 136.816,331.866 139,328.5C 139.497,326.19 139.663,323.857 139.5,321.5C 136.521,320.683 133.521,319.849 130.5,319C 123.132,318.687 115.799,318.02 108.5,317C 103.381,314.215 99.2144,310.382 96,305.5C 89.5752,293.277 86.2419,280.277 86,266.5C 95.3434,272.284 105.51,276.118 116.5,278C 131.06,282.894 140.56,292.728 145,307.5C 147.652,300.72 149.152,293.72 149.5,286.5C 146.833,286.833 144.167,287.167 141.5,287.5C 141.719,286.325 141.386,285.325 140.5,284.5C 136.046,287.023 132.38,286.023 129.5,281.5C 133.646,275.423 136.979,268.923 139.5,262C 116.371,262.039 105.371,250.539 106.5,227.5C 95.4309,221.409 92.4309,212.409 97.5,200.5C 93.9705,189.956 96.6371,181.29 105.5,174.5C 111.467,159.009 122.801,151.842 139.5,153C 144.924,147.053 151.258,142.553 158.5,139.5 Z"/></g>
<g><path style="opacity:1" fill="#e09f4d" d="M 184.5,176.5 C 188.47,180.521 189.303,185.188 187,190.5C 185.487,193.524 183.487,196.191 181,198.5C 181.555,194.817 182.555,191.15 184,187.5C 184.499,183.848 184.665,180.182 184.5,176.5 Z"/></g>
<g><path style="opacity:1" fill="#e1a04d" d="M 155.5,169.5 C 161.262,169.149 166.928,169.649 172.5,171C 174.679,172.257 176.679,173.757 178.5,175.5C 179.833,178.167 179.833,180.833 178.5,183.5C 170.39,173.94 160.723,172.107 149.5,178C 146.724,180.394 144.557,183.227 143,186.5C 139.956,180.432 141.456,175.932 147.5,173C 150.53,172.422 153.197,171.255 155.5,169.5 Z"/></g>
<g><path style="opacity:1" fill="#de9e4c" d="M 160.5,178.5 C 165.118,177.975 166.118,179.308 163.5,182.5C 159.558,183.6 155.558,183.767 151.5,183C 154.098,180.472 157.098,178.972 160.5,178.5 Z"/></g>
<g><path style="opacity:1" fill="#e6a44e" d="M 130.5,160.5 C 132.746,161.21 135.08,161.71 137.5,162C 138.428,162.388 139.095,163.055 139.5,164C 136.101,169.273 134.601,175.106 135,181.5C 132.746,185.007 130.746,188.673 129,192.5C 120.327,189.752 115.16,183.919 113.5,175C 113.673,170.614 115.34,166.947 118.5,164C 122.531,162.509 126.531,161.343 130.5,160.5 Z"/></g>
<g><path style="opacity:1" fill="#e6a44e" d="M 158.5,145.5 C 175.731,143.639 183.398,151.306 181.5,168.5C 167.325,161.112 153.991,162.445 141.5,172.5C 141.167,172.167 140.833,171.833 140.5,171.5C 142.572,164.756 146.572,159.423 152.5,155.5C 150.664,154.081 148.664,152.914 146.5,152C 150.308,149.353 154.308,147.186 158.5,145.5 Z"/></g>
<g><path style="opacity:1" fill="#d7994a" d="M 168.5,182.5 C 173.328,182.385 174.661,184.552 172.5,189C 165.514,190.954 158.514,190.954 151.5,189C 157.247,189.109 162.58,187.776 167.5,185C 168.252,184.329 168.586,183.496 168.5,182.5 Z"/></g>
<g><path style="opacity:1" fill="#df9f4c" d="M 108.5,179.5 C 112.532,187.197 118.532,192.864 126.5,196.5C 127.237,199.775 128.237,202.942 129.5,206C 126.006,206.103 122.673,205.27 119.5,203.5C 111.539,197.573 107.873,189.573 108.5,179.5 Z"/></g>
<g><path style="opacity:1" fill="#e6a34e" d="M 135.5,186.5 C 141.117,195.968 148.117,204.468 156.5,212C 159.618,213.147 162.618,214.48 165.5,216C 172.524,216.169 179.524,216.669 186.5,217.5C 183.222,227.232 176.389,231.898 166,231.5C 150.477,230.235 140.144,222.235 135,207.5C 134.28,200.464 134.447,193.464 135.5,186.5 Z"/></g>
<g><path style="opacity:1" fill="#e0a04d" d="M 192.5,180.5 C 193.386,179.224 194.386,179.224 195.5,180.5C 199.672,189.455 199.172,198.122 194,206.5C 193.474,203.089 192.641,199.755 191.5,196.5C 193.333,191.083 193.666,185.75 192.5,180.5 Z"/></g>
<g><path style="opacity:1" fill="#e1a04d" d="M 147.5,192.5 C 156.821,196.819 166.487,197.486 176.5,194.5C 176.116,198.604 174.616,202.271 172,205.5C 170.503,207.677 168.503,209.01 166,209.5C 156.461,207.459 150.294,201.793 147.5,192.5 Z"/></g>
<g><path style="opacity:1" fill="#e1a04d" d="M 185.5,199.5 C 186.833,199.5 188.167,199.5 189.5,199.5C 189.665,202.85 189.498,206.183 189,209.5C 183.624,212.681 178.124,213.014 172.5,210.5C 175.699,208.136 179.032,205.97 182.5,204C 184.141,202.871 185.141,201.371 185.5,199.5 Z"/></g>
<g><path style="opacity:1" fill="#e0a04d" d="M 101.5,184.5 C 104.072,190.616 107.238,196.616 111,202.5C 113.409,204.62 115.909,206.62 118.5,208.5C 107.199,209.048 100.866,203.548 99.5,192C 100.479,189.567 101.145,187.067 101.5,184.5 Z"/></g>
<g><path style="opacity:1" fill="#e3a24d" d="M 202.5,192.5 C 204.017,192.511 205.184,193.177 206,194.5C 208.22,198.595 208.887,202.928 208,207.5C 203.654,218.513 195.987,226.18 185,230.5C 184.5,230.167 184,229.833 183.5,229.5C 187.952,224.596 190.786,218.929 192,212.5C 198.375,207.419 201.875,200.752 202.5,192.5 Z"/></g>
<g><path style="opacity:1" fill="#d7241c" d="M 250.5,122.5 C 307.833,122.5 365.167,122.5 422.5,122.5C 422.5,177.833 422.5,233.167 422.5,288.5C 410.5,287.666 399.167,284.499 388.5,279C 396.696,272.441 401.029,263.941 401.5,253.5C 398.653,238.084 395.487,222.75 392,207.5C 391.188,199.778 391.522,192.111 393,184.5C 394.333,183.167 395.667,183.167 397,184.5C 396.71,192.821 396.71,201.154 397,209.5C 396.995,222.497 402.995,231.497 415,236.5C 413.958,229.458 412.458,222.458 410.5,215.5C 410.194,212.615 410.527,209.948 411.5,207.5C 413.698,209.397 416.364,210.397 419.5,210.5C 417.901,200.7 415.734,191.034 413,181.5C 408.856,173.56 402.356,170.393 393.5,172C 389.183,174.315 386.35,177.815 385,182.5C 380.223,196.602 379.223,210.935 382,225.5C 377.157,222.412 372.491,219.079 368,215.5C 367.088,213.341 366.255,211.175 365.5,209C 368.726,207.802 371.559,205.969 374,203.5C 373.52,199.548 371.686,196.214 368.5,193.5C 370.531,191.478 372.865,189.811 375.5,188.5C 376.857,185.473 376.524,182.64 374.5,180C 379.503,176.661 383.503,172.327 386.5,167C 385.637,164.638 383.97,163.138 381.5,162.5C 383.507,160.992 385.174,159.158 386.5,157C 382.648,153.467 378.314,150.8 373.5,149C 376.345,145.639 378.679,141.972 380.5,138C 368.794,131.988 356.46,129.988 343.5,132C 340.978,132.957 338.811,134.457 337,136.5C 328.091,129.559 317.925,126.226 306.5,126.5C 306.244,128.937 305.577,131.271 304.5,133.5C 299.171,134.665 293.838,135.832 288.5,137C 280.676,141.445 280.676,146.112 288.5,151C 289.833,151.667 291.167,152.333 292.5,153C 287.939,157.112 283.605,161.446 279.5,166C 281.71,171.545 285.377,175.879 290.5,179C 288.833,180.167 287.167,181.333 285.5,182.5C 281.032,179.863 276.698,177.03 272.5,174C 260.635,171.043 253.635,175.543 251.5,187.5C 252.551,194.919 253.384,202.252 254,209.5C 254.689,210.357 255.522,211.023 256.5,211.5C 261.647,207.234 266.814,206.901 272,210.5C 272.667,211.5 272.667,212.5 272,213.5C 270.764,214.399 269.93,215.566 269.5,217C 271.298,219.966 273.631,222.466 276.5,224.5C 275.197,226.937 273.53,229.104 271.5,231C 272.833,231.667 274.167,232.333 275.5,233C 282.135,233.972 288.801,234.639 295.5,235C 294.193,237.324 292.193,238.657 289.5,239C 279.778,240.798 270.111,242.798 260.5,245C 257.616,246.884 255.449,249.384 254,252.5C 253.333,257.5 253.333,262.5 254,267.5C 255.969,271.196 256.969,275.196 257,279.5C 258.019,280.687 259.186,281.687 260.5,282.5C 264.739,277.619 270.072,274.786 276.5,274C 279.413,271.413 282.58,269.246 286,267.5C 286.273,269.101 286.773,270.601 287.5,272C 291.239,272.319 294.906,271.819 298.5,270.5C 300.239,271.4 302.072,272.067 304,272.5C 311.578,270.788 318.745,268.121 325.5,264.5C 326.167,266.5 326.833,268.5 327.5,270.5C 328.316,272.786 329.65,274.786 331.5,276.5C 328.967,278.191 326.3,279.691 323.5,281C 314.485,282.225 305.485,283.558 296.5,285C 287.684,288.457 284.85,294.624 288,303.5C 291.09,312.229 294.923,320.562 299.5,328.5C 292.891,330.137 286.224,331.637 279.5,333C 274.844,335.827 269.844,337.827 264.5,339C 259.082,343.735 257.582,349.568 260,356.5C 262.614,358.056 263.947,360.39 264,363.5C 267.206,367.008 270.706,370.175 274.5,373C 276.754,374.651 279.088,374.818 281.5,373.5C 282.1,369.569 283.433,365.902 285.5,362.5C 287.131,360.703 289.131,359.536 291.5,359C 296.444,358.002 301.444,357.502 306.5,357.5C 314.281,357.696 321.948,358.696 329.5,360.5C 329.286,358.856 329.62,357.356 330.5,356C 333.482,355.502 336.482,355.335 339.5,355.5C 339.952,350.773 338.285,346.94 334.5,344C 337.219,342.281 339.219,339.947 340.5,337C 337.167,333 333.833,329 330.5,325C 333.1,322.541 333.1,320.041 330.5,317.5C 332.006,316.253 333.506,316.253 335,317.5C 338.915,336.43 350.415,344.93 369.5,343C 364.799,347.366 360.466,352.033 356.5,357C 343.218,356.217 333.718,361.717 328,373.5C 325.343,384.228 328.843,392.061 338.5,397C 347.246,397.728 355.912,398.894 364.5,400.5C 367.739,400.214 370.406,398.881 372.5,396.5C 369.854,393.628 369.021,390.295 370,386.5C 378.502,387.777 385.669,385.277 391.5,379C 389.945,375.439 387.612,372.439 384.5,370C 391.198,368.043 397.531,365.209 403.5,361.5C 404.116,358.876 403.116,356.709 400.5,355C 404.877,352.929 409.21,350.763 413.5,348.5C 410.746,346.394 407.746,344.728 404.5,343.5C 409.587,337.617 413.254,331.284 415.5,324.5C 407.026,327.162 398.359,328.329 389.5,328C 387.59,327.592 386.59,326.425 386.5,324.5C 388.537,321.637 391.204,319.47 394.5,318C 402.07,314.591 409.736,311.591 417.5,309C 413.988,306.743 410.654,304.243 407.5,301.5C 412.236,298.493 416.903,295.493 421.5,292.5C 422.498,319.995 422.831,347.662 422.5,375.5C 421.719,380.31 419.885,384.644 417,388.5C 403.186,402.62 386.353,409.787 366.5,410C 345.5,410.333 324.5,410.667 303.5,411C 286.614,412.712 271.281,418.379 257.5,428C 254.96,430.205 252.793,432.705 251,435.5C 250.5,331.167 250.333,226.834 250.5,122.5 Z"/></g>
<g><path style="opacity:1" fill="#7b1e19" d="M 411.5,207.5 C 410.527,209.948 410.194,212.615 410.5,215.5C 409.197,212.645 409.197,209.645 410.5,206.5C 411.107,206.624 411.44,206.957 411.5,207.5 Z"/></g>
<g><path style="opacity:1" fill="#e5a34e" d="M 261.5,196.5 C 263.977,196.051 265.977,196.717 267.5,198.5C 264.282,200.699 261.116,203.033 258,205.5C 256.98,201.553 258.147,198.553 261.5,196.5 Z"/></g>
<g><path style="opacity:1" fill="#dc9d4b" d="M 260.5,187.5 C 262.5,187.5 264.5,187.5 266.5,187.5C 266.579,188.93 266.246,190.264 265.5,191.5C 261.975,192.512 258.808,194.179 256,196.5C 255.377,192.412 256.877,189.412 260.5,187.5 Z"/></g>
<g><path style="opacity:1" fill="#da9b4b" d="M 261.5,177.5 C 265.138,176.737 266.638,178.07 266,181.5C 262.624,182.347 259.457,183.681 256.5,185.5C 255.615,181.361 257.282,178.695 261.5,177.5 Z"/></g>
<g><path style="opacity:1" fill="#e6a34e" d="M 312.5,131.5 C 321.025,133.449 328.692,137.115 335.5,142.5C 346.63,136.599 358.13,135.932 370,140.5C 369.036,144.565 366.87,148.065 363.5,151C 368.403,151.869 372.903,153.702 377,156.5C 376.253,159.445 374.42,161.778 371.5,163.5C 374.53,164.677 377.197,166.343 379.5,168.5C 375.959,173.107 371.293,175.941 365.5,177C 368.241,179.23 369.408,182.064 369,185.5C 365.723,187.554 362.223,189.221 358.5,190.5C 360.451,193.786 362.785,196.786 365.5,199.5C 362.334,200.234 359.334,201.4 356.5,203C 358.54,205.185 359.874,207.685 360.5,210.5C 356.486,210.334 352.486,210.501 348.5,211C 350.227,213.904 350.893,217.07 350.5,220.5C 345.666,219.421 340.999,217.755 336.5,215.5C 335.948,217.003 335.948,218.669 336.5,220.5C 332.327,220.581 328.661,219.248 325.5,216.5C 322.952,218.942 319.952,220.608 316.5,221.5C 316.418,218.667 316.252,215.667 316,212.5C 313.221,214.797 310.388,214.964 307.5,213C 309.028,210.083 310.361,207.083 311.5,204C 306.965,203.284 302.632,202.118 298.5,200.5C 299.663,196.018 301.996,192.184 305.5,189C 300.934,188.609 296.601,187.442 292.5,185.5C 296.639,182.861 300.639,180.028 304.5,177C 297.19,175.351 291.19,171.684 286.5,166C 291.349,161.319 296.015,156.485 300.5,151.5C 295.372,150.104 291.039,147.437 287.5,143.5C 294.357,139.283 301.69,137.95 309.5,139.5C 310.507,136.81 311.507,134.144 312.5,131.5 Z"/></g>
<g><path style="opacity:1" fill="#1e1817" d="M 305.5,160.5 C 311.948,159.303 317.781,160.97 323,165.5C 323.868,169.672 322.368,172.838 318.5,175C 314.551,176.184 310.551,176.518 306.5,176C 308.081,175.293 309.581,174.46 311,173.5C 314.841,166.483 313.007,162.15 305.5,160.5 Z"/></g>
<g><path style="opacity:1" fill="#e7a44f" d="M 314.5,165.5 C 318.987,165.141 320.654,166.974 319.5,171C 317.866,171.494 316.199,171.66 314.5,171.5C 314.5,169.5 314.5,167.5 314.5,165.5 Z"/></g>
<g><path style="opacity:1" fill="#1d1817" d="M 347.5,158.5 C 349.199,158.34 350.866,158.506 352.5,159C 349.048,159.892 346.048,161.558 343.5,164C 345.594,166.634 345.927,169.467 344.5,172.5C 345.833,173.5 347.167,174.5 348.5,175.5C 344.061,176.12 339.727,175.287 335.5,173C 332.362,170.581 331.862,167.747 334,164.5C 338.153,161.518 342.653,159.518 347.5,158.5 Z"/></g>
<g><path style="opacity:1" fill="#e6a34e" d="M 338.5,164.5 C 341.944,165.045 343.111,167.045 342,170.5C 335.44,171.454 334.273,169.454 338.5,164.5 Z"/></g>
<g><path style="opacity:1" fill="#e09f4c" d="M 114.5,222.5 C 112.735,223.461 110.735,223.795 108.5,223.5C 101.501,220.496 99.0014,215.163 101,207.5C 102.896,209.53 105.063,211.197 107.5,212.5C 109.113,216.429 111.446,219.762 114.5,222.5 Z"/></g>
<g><path style="opacity:1" fill="#9f201a" d="M 250.5,122.5 C 307.998,121.501 365.664,121.168 423.5,121.5C 423.832,177.336 423.499,233.002 422.5,288.5C 422.5,233.167 422.5,177.833 422.5,122.5C 365.167,122.5 307.833,122.5 250.5,122.5 Z"/></g>
<g><path style="opacity:1" fill="#e3a14d" d="M 127.5,214.5 C 128.873,214.343 130.207,214.51 131.5,215C 133.668,219.511 136.668,223.344 140.5,226.5C 129.927,228.364 121.593,224.864 115.5,216C 119.688,215.824 123.688,215.324 127.5,214.5 Z"/></g>
<g><path style="opacity:1" fill="#e7a44e" d="M 395.5,174.5 C 402.092,174.378 406.592,177.378 409,183.5C 411.477,190.742 413.644,198.075 415.5,205.5C 413.671,206.282 412.171,205.616 411,203.5C 410.185,201.377 409.185,199.377 408,197.5C 406.452,201.525 405.619,205.692 405.5,210C 406.121,215.289 406.955,220.455 408,225.5C 403.503,221.507 400.836,216.507 400,210.5C 399.667,200.833 399.333,191.167 399,181.5C 396.045,178.737 393.378,179.07 391,182.5C 388.816,187.766 387.649,193.266 387.5,199C 388.135,207.247 389.302,215.414 391,223.5C 395.252,235.161 397.252,247.161 397,259.5C 394.756,268.745 389.256,275.245 380.5,279C 383.706,282.067 387.373,284.401 391.5,286C 398.432,288.481 405.432,290.481 412.5,292C 406.812,295.176 400.812,297.676 394.5,299.5C 397.569,302.577 400.903,305.244 404.5,307.5C 396.613,309.808 389.28,313.308 382.5,318C 375.21,323.909 375.876,328.575 384.5,332C 391.205,332.495 397.872,332.495 404.5,332C 400.167,337.667 395.167,342.667 389.5,347C 392.5,347.333 395.5,347.667 398.5,348C 395.052,350.717 391.385,352.884 387.5,354.5C 389.872,355.347 391.872,356.681 393.5,358.5C 385.645,363.808 376.979,367.308 367.5,369C 373.585,370.208 378.585,373.208 382.5,378C 377.768,380.401 372.768,381.068 367.5,380C 364.336,376.792 360.669,375.958 356.5,377.5C 348.942,375.786 341.275,374.786 333.5,374.5C 334.881,368.616 338.547,364.783 344.5,363C 349.217,362.524 353.883,362.524 358.5,363C 366.545,353.958 374.211,344.624 381.5,335C 377.835,335.645 374.169,336.645 370.5,338C 354.646,340.252 344.646,333.752 340.5,318.5C 342.747,307.419 349.414,300.919 360.5,299C 360.193,294.977 358.693,291.477 356,288.5C 348.622,282.282 341.122,276.282 333.5,270.5C 331.188,265.644 330.855,260.644 332.5,255.5C 324.898,258.7 317.231,261.7 309.5,264.5C 308.833,264.333 308.167,264.167 307.5,264C 309.126,261.372 311.126,259.039 313.5,257C 313.167,256.833 312.833,256.667 312.5,256.5C 307.011,260.578 301.011,263.578 294.5,265.5C 293.833,265.167 293.167,264.833 292.5,264.5C 293.648,262.851 294.981,261.351 296.5,260C 289.414,261.52 282.747,264.353 276.5,268.5C 276.437,262.321 275.104,256.321 272.5,250.5C 272.57,249.228 272.903,248.062 273.5,247C 282.697,244.292 292.031,241.959 301.5,240C 310.521,239.607 319.521,238.94 328.5,238C 319.82,236.497 311.153,236.331 302.5,237.5C 302.167,236.833 301.833,236.167 301.5,235.5C 302.46,233.523 303.46,231.523 304.5,229.5C 296.2,229.568 287.866,229.234 279.5,228.5C 281.539,226.258 283.205,223.758 284.5,221C 281.576,220.317 279.242,218.817 277.5,216.5C 278.48,215.019 279.647,213.685 281,212.5C 281.667,211.833 281.667,211.167 281,210.5C 277.672,207.667 274.005,205.334 270,203.5C 269.264,195.465 269.431,187.465 270.5,179.5C 275.144,180.128 279.144,182.128 282.5,185.5C 282.023,186.478 281.357,187.311 280.5,188C 285.251,189.748 289.918,191.581 294.5,193.5C 293.533,195.63 292.366,197.63 291,199.5C 290.333,200.5 290.333,201.5 291,202.5C 295.613,204.864 300.446,206.697 305.5,208C 303.746,211.589 301.412,214.755 298.5,217.5C 299.025,218.192 299.692,218.692 300.5,219C 304.241,219.502 307.908,219.502 311.5,219C 310.932,221.684 309.932,224.184 308.5,226.5C 311.845,227.559 315.178,227.392 318.5,226C 320.748,224.086 323.248,222.586 326,221.5C 331.028,224.633 336.528,226.3 342.5,226.5C 342.238,225.022 342.571,223.689 343.5,222.5C 347.068,224.118 350.735,225.451 354.5,226.5C 355.487,223.232 355.82,219.898 355.5,216.5C 361.115,216.094 365.448,218.261 368.5,223C 370.087,223.862 371.754,224.529 373.5,225C 369.743,226.81 366.076,228.81 362.5,231C 365.545,234.19 369.212,236.357 373.5,237.5C 370.301,241.267 366.301,243.767 361.5,245C 369.487,248.446 369.153,251.446 360.5,254C 363.382,255.52 366.382,256.853 369.5,258C 372.743,261.198 376.243,264.031 380,266.5C 387.78,261.264 390.946,253.931 389.5,244.5C 388.589,233.441 387.089,222.441 385,211.5C 384.247,200.104 385.914,189.104 390,178.5C 391.5,176.531 393.333,175.198 395.5,174.5 Z"/></g>
<g><path style="opacity:1" fill="#211b18" d="M 347.5,194.5 C 348.239,194.369 348.906,194.536 349.5,195C 345.395,198.194 341.728,201.86 338.5,206C 336.591,206.448 335.424,205.615 335,203.5C 333.03,206.968 330.864,210.301 328.5,213.5C 327.202,210.147 325.535,206.98 323.5,204C 320.782,204.524 318.115,205.357 315.5,206.5C 313.914,203.729 313.414,200.729 314,197.5C 314.899,199.327 316.233,200.66 318,201.5C 320.234,200.299 322.401,198.965 324.5,197.5C 326,199.833 327.5,202.167 329,204.5C 330.643,202.023 332.476,199.69 334.5,197.5C 335.611,198.611 336.945,199.278 338.5,199.5C 341.875,198.386 344.875,196.72 347.5,194.5 Z"/></g>
<g><path style="opacity:1" fill="#201a17" d="M 322.5,181.5 C 324.148,182.777 325.982,183.777 328,184.5C 333.21,181.245 334.21,181.912 331,186.5C 330.333,187.5 330.333,188.5 331,189.5C 333.748,191.458 336.582,193.291 339.5,195C 335.788,194.715 332.121,193.882 328.5,192.5C 324.49,193.68 320.49,194.513 316.5,195C 320.004,193.082 323.337,190.916 326.5,188.5C 324.711,186.39 323.378,184.056 322.5,181.5 Z"/></g>
<g><path style="opacity:1" fill="#77562d" d="M 114.5,222.5 C 115.043,222.56 115.376,222.893 115.5,223.5C 113.027,224.797 110.693,224.797 108.5,223.5C 110.735,223.795 112.735,223.461 114.5,222.5 Z"/></g>
<g><path style="opacity:1" fill="#e3a14d" d="M 121.5,228.5 C 124.024,229.927 126.69,231.094 129.5,232C 135.167,232.333 140.833,232.667 146.5,233C 150.079,234.262 153.412,235.929 156.5,238C 141.006,249.768 128.673,247.102 119.5,230C 120.416,229.722 121.082,229.222 121.5,228.5 Z"/></g>
<g><path style="opacity:1" fill="#74542d" d="M 115.5,231.5 C 114.292,230.766 112.959,230.433 111.5,230.5C 111.5,232.5 111.5,234.5 111.5,236.5C 110.532,234.393 110.198,232.059 110.5,229.5C 112.781,229.077 114.448,229.744 115.5,231.5 Z"/></g>
<g><path style="opacity:1" fill="#d0241c" d="M 382.5,226.5 C 383.268,227.263 383.768,228.263 384,229.5C 384.667,237.5 384.667,245.5 384,253.5C 383.803,255.861 382.636,257.528 380.5,258.5C 378.246,256.081 375.579,254.248 372.5,253C 376.438,250.399 376.438,247.899 372.5,245.5C 376.431,243.368 379.764,240.535 382.5,237C 380.359,235.692 378.359,234.192 376.5,232.5C 378.854,230.812 380.854,228.812 382.5,226.5 Z"/></g>
<g><path style="opacity:1" fill="#e1a04d" d="M 115.5,231.5 C 122.039,247.541 133.539,252.874 150,247.5C 151.366,249.37 152.533,251.37 153.5,253.5C 144.186,257.771 134.52,258.604 124.5,256C 116.084,252.291 111.75,245.791 111.5,236.5C 111.5,234.5 111.5,232.5 111.5,230.5C 112.959,230.433 114.292,230.766 115.5,231.5 Z"/></g>
<g><path style="opacity:1" fill="#df9f4c" d="M 208.5,216.5 C 212.864,233.317 206.03,242.651 188,244.5C 181.8,243.543 175.634,242.543 169.5,241.5C 169.335,245.182 169.501,248.848 170,252.5C 171.214,254.049 172.714,255.215 174.5,256C 178.871,256.172 183.204,256.672 187.5,257.5C 181.988,261.644 175.988,262.478 169.5,260C 164.071,258.198 159.571,255.031 156,250.5C 154.699,248.635 154.365,246.635 155,244.5C 157.386,243.237 159.219,241.403 160.5,239C 179.38,241.23 194.88,235.063 207,220.5C 207.791,219.255 208.291,217.922 208.5,216.5 Z"/></g>
<g><path style="opacity:1" fill="#df9f4c" d="M 172.5,245.5 C 178.961,247.708 185.628,249.042 192.5,249.5C 186.389,253.052 180.056,253.386 173.5,250.5C 172.548,248.955 172.215,247.288 172.5,245.5 Z"/></g>
<g><path style="opacity:1" fill="#de9e4c" d="M 262.5,248.5 C 264.167,248.5 265.833,248.5 267.5,248.5C 267.785,250.288 267.452,251.955 266.5,253.5C 263.944,254.051 261.611,255.051 259.5,256.5C 257.775,252.773 258.775,250.107 262.5,248.5 Z"/></g>
<g><path style="opacity:1" fill="#d39749" d="M 264.5,256.5 C 266.167,256.5 267.833,256.5 269.5,256.5C 269.657,257.873 269.49,259.207 269,260.5C 265.276,261.612 262.109,263.612 259.5,266.5C 258.477,261.937 260.143,258.603 264.5,256.5 Z"/></g>
<g><path style="opacity:1" fill="#dc9c4b" d="M 158.5,259.5 C 160.595,260.412 162.595,261.579 164.5,263C 165.793,263.49 167.127,263.657 168.5,263.5C 170.449,270.582 169.616,277.249 166,283.5C 159.162,276.807 156.662,268.807 158.5,259.5 Z"/></g>
<g><path style="opacity:1" fill="#791e19" d="M 325.5,264.5 C 325.56,263.957 325.893,263.624 326.5,263.5C 327.474,265.743 327.808,268.076 327.5,270.5C 326.833,268.5 326.167,266.5 325.5,264.5 Z"/></g>
<g><path style="opacity:1" fill="#df9e4c" d="M 151.5,261.5 C 153.204,265.815 154.538,270.482 155.5,275.5C 153.394,279.617 150.06,281.617 145.5,281.5C 145.961,274.31 147.961,267.644 151.5,261.5 Z"/></g>
<g><path style="opacity:1" fill="#e2a14d" d="M 265.5,265.5 C 267.167,265.5 268.833,265.5 270.5,265.5C 270.579,266.93 270.246,268.264 269.5,269.5C 267.258,271.539 264.758,273.205 262,274.5C 260.665,270.392 261.832,267.392 265.5,265.5 Z"/></g>
<g><path style="opacity:1" fill="#da9b4b" d="M 145.5,260.5 C 146.552,260.351 147.552,260.517 148.5,261C 144.373,266.041 142.206,271.875 142,278.5C 140.136,281.207 137.636,282.041 134.5,281C 138.052,274.06 141.719,267.227 145.5,260.5 Z"/></g>
<g><path style="opacity:1" fill="#e4a24e" d="M 208.5,268.5 C 209.5,268.5 210.5,268.5 211.5,268.5C 208.471,279.855 205.304,291.189 202,302.5C 197.857,310.644 191.357,315.811 182.5,318C 174.294,320.142 165.961,321.308 157.5,321.5C 159.261,311.646 163.428,302.979 170,295.5C 175.41,289.585 181.243,284.252 187.5,279.5C 194.563,275.616 201.563,271.95 208.5,268.5 Z"/></g>
<g><path style="opacity:1" fill="#e6a34e" d="M 333.5,280.5 C 335.199,280.34 336.866,280.506 338.5,281C 342.5,283.667 346.5,286.333 350.5,289C 352.087,290.845 353.421,292.845 354.5,295C 350.109,297.032 345.776,299.365 341.5,302C 338.252,304.081 335.919,306.914 334.5,310.5C 329.572,310.683 324.572,310.85 319.5,311C 325.319,315.532 324.652,318.198 317.5,319C 315.993,319.837 315.493,321.004 316,322.5C 322.708,326.202 328.541,331.035 333.5,337C 329.816,338.104 326.15,339.27 322.5,340.5C 323.848,343.013 325.848,344.847 328.5,346C 325.167,346.667 321.833,347.333 318.5,348C 323.639,352.119 322.472,353.619 315,352.5C 306.637,351.502 298.303,351.835 290,353.5C 285.55,350.096 281.05,346.763 276.5,343.5C 275.24,341.647 275.24,339.814 276.5,338C 286.62,335.006 296.954,333.173 307.5,332.5C 301.816,323.298 296.983,313.631 293,303.5C 290.378,295.832 292.878,290.999 300.5,289C 310.623,287.58 320.623,285.58 330.5,283C 331.942,282.623 332.942,281.79 333.5,280.5 Z"/></g>
<g><path style="opacity:1" fill="#e5a34e" d="M 92.5,276.5 C 94.6125,277.44 96.6125,278.606 98.5,280C 113.201,281.438 125.368,287.605 135,298.5C 138.506,304.015 140.173,310.015 140,316.5C 137.649,315.286 135.149,314.452 132.5,314C 124.724,313.812 117.058,312.812 109.5,311C 102.736,305.907 97.9027,299.407 95,291.5C 94.0025,286.514 93.1692,281.514 92.5,276.5 Z"/></g>
<g><path style="opacity:1" fill="#af211a" d="M 422.5,375.5 C 422.831,347.662 422.498,319.995 421.5,292.5C 421.783,291.711 422.283,291.044 423,290.5C 423.83,319.003 423.664,347.336 422.5,375.5 Z"/></g>
<g><path style="opacity:1" fill="#261665" d="M 162.5,287.5 C 164.394,288.048 166.06,289.048 167.5,290.5C 161.561,300.044 159.894,299.044 162.5,287.5 Z"/></g>
<g><path style="opacity:1" fill="#221b18" d="M 105.5,288.5 C 113.395,291.447 121.062,294.947 128.5,299C 131.854,302.204 133.687,306.037 134,310.5C 128.893,302.728 121.727,298.228 112.5,297C 108.857,295.195 106.524,292.362 105.5,288.5 Z"/></g>
<g><path style="opacity:1" fill="#1c1716" d="M 202.5,279.5 C 203.239,279.369 203.906,279.536 204.5,280C 196.049,296.472 183.383,307.805 166.5,314C 176.789,307.252 186.289,299.419 195,290.5C 198.015,287.122 200.515,283.456 202.5,279.5 Z"/></g>
<g><path style="opacity:1" fill="#e3a14d" d="M 156.5,279.5 C 157.117,279.611 157.617,279.944 158,280.5C 157.436,309.421 152.102,337.421 142,364.5C 139.033,361.599 135.533,359.599 131.5,358.5C 142.864,333.077 151.197,306.744 156.5,279.5 Z"/></g>
<g><path style="opacity:1" fill="#d59849" d="M 266.5,341.5 C 267.833,341.5 269.167,341.5 270.5,341.5C 270.657,342.873 270.49,344.207 270,345.5C 267.626,347.539 265.626,349.872 264,352.5C 262.812,348.259 263.645,344.592 266.5,341.5 Z"/></g>
<g><path style="opacity:1" fill="#de9e4c" d="M 272.5,348.5 C 274.722,348.559 275.722,349.725 275.5,352C 273.342,354.668 271.342,357.501 269.5,360.5C 268.345,357.554 268.179,354.554 269,351.5C 270.518,350.837 271.685,349.837 272.5,348.5 Z"/></g>
<g><path style="opacity:1" fill="#e2a14d" d="M 279.5,355.5 C 281.722,355.559 282.722,356.725 282.5,359C 280.748,361.76 278.581,364.26 276,366.5C 275.333,363.833 275.333,361.167 276,358.5C 277.518,357.837 278.685,356.837 279.5,355.5 Z"/></g>
<g><path style="opacity:1" fill="#e5a34e" d="M 128.5,363.5 C 132.059,363.408 135.392,364.241 138.5,366C 139.591,368.064 139.758,370.231 139,372.5C 134.792,373.697 131.125,372.697 128,369.5C 127.322,367.402 127.489,365.402 128.5,363.5 Z"/></g>
<g><path style="opacity:1" fill="#e0a04d" d="M 334.5,378.5 C 335.15,378.804 335.817,379.137 336.5,379.5C 337.067,383.639 338.067,387.639 339.5,391.5C 336.758,392.5 334.758,391.5 333.5,388.5C 332.057,384.877 332.391,381.544 334.5,378.5 Z"/></g>
<g><path style="opacity:1" fill="#de9e4c" d="M 344.5,380.5 C 349.146,379.975 350.479,381.809 348.5,386C 349.308,388.761 350.308,391.428 351.5,394C 347.565,393.746 345.065,391.58 344,387.5C 343.297,385.071 343.463,382.738 344.5,380.5 Z"/></g>
<g><path style="opacity:1" fill="#de9e4c" d="M 357.5,381.5 C 359.017,381.511 360.184,382.177 361,383.5C 362.202,387.666 363.702,391.666 365.5,395.5C 363.865,396.681 362.198,396.681 360.5,395.5C 355.971,391.408 354.971,386.741 357.5,381.5 Z"/></g>
<g><path style="opacity:1" fill="#e7a44e" d="M 18.5,392.5 C 18.7352,391.903 19.2352,391.57 20,391.5C 41.54,399.217 63.7067,404.383 86.5,407C 98.6546,413.474 111.655,416.974 125.5,417.5C 124.778,421.466 122.278,423.132 118,422.5C 107.667,420.833 97.3333,419.167 87,417.5C 80.6648,417.332 75.9982,419.999 73,425.5C 72.6667,438.167 72.3333,450.833 72,463.5C 71.7811,464.938 71.2811,466.271 70.5,467.5C 62.8105,466.161 55.1438,464.661 47.5,463C 40.1891,460.54 32.8557,458.206 25.5,456C 18.8224,453.328 12.489,450.161 6.5,446.5C 18.7933,440.353 31.1267,434.187 43.5,428C 33.2897,417.322 24.9564,405.489 18.5,392.5 Z"/></g>
<g><path style="opacity:1" fill="#e7a44e" d="M 470.5,391.5 C 471.552,391.351 472.552,391.517 473.5,392C 467.185,405.33 458.852,417.33 448.5,428C 460.873,434.187 473.207,440.353 485.5,446.5C 479.511,450.161 473.178,453.328 466.5,456C 459.144,458.206 451.811,460.54 444.5,463C 436.856,464.661 429.189,466.161 421.5,467.5C 420.719,466.271 420.219,464.938 420,463.5C 419.667,450.833 419.333,438.167 419,425.5C 416.002,419.999 411.335,417.332 405,417.5C 394.667,419.167 384.333,420.833 374,422.5C 369.722,423.132 367.222,421.466 366.5,417.5C 380.021,416.965 392.688,413.465 404.5,407C 416.518,405.131 428.518,403.131 440.5,401C 450.877,398.624 460.877,395.457 470.5,391.5 Z"/></g>
<g><path style="opacity:1" fill="#e2a14d" d="M 299.5,418.5 C 302.833,418.5 306.167,418.5 309.5,418.5C 309.225,423.228 306.892,426.394 302.5,428C 290.528,430.361 278.528,432.528 266.5,434.5C 265.167,433.833 265.167,433.167 266.5,432.5C 276.729,425.917 287.729,421.25 299.5,418.5 Z"/></g>
<g><path style="opacity:1" fill="#e2a14d" d="M 182.5,418.5 C 197.801,418.822 211.468,423.655 223.5,433C 212.066,432.248 200.733,430.582 189.5,428C 185.108,426.394 182.775,423.228 182.5,418.5 Z"/></g>
<g><path style="opacity:1" fill="#e6a34e" d="M 121.5,426.5 C 122.833,426.5 124.167,426.5 125.5,426.5C 125.5,431.5 125.5,436.5 125.5,441.5C 109.365,439.29 94.1981,434.29 80,426.5C 79.2195,425.056 79.3861,423.723 80.5,422.5C 82.6079,421.898 84.7746,421.565 87,421.5C 98.3798,423.943 109.88,425.61 121.5,426.5 Z"/></g>
<g><path style="opacity:1" fill="#e7a44e" d="M 366.5,441.5 C 366.5,436.5 366.5,431.5 366.5,426.5C 367.833,426.5 369.167,426.5 370.5,426.5C 376.523,426.331 382.523,425.831 388.5,425C 395.956,421.793 403.623,420.959 411.5,422.5C 412.614,423.723 412.781,425.056 412,426.5C 397.802,434.29 382.635,439.29 366.5,441.5 Z"/></g>
<g><path style="opacity:1" fill="#7b592e" d="M 121.5,426.5 C 122.919,425.549 124.585,425.216 126.5,425.5C 126.821,431.026 126.488,436.36 125.5,441.5C 125.5,436.5 125.5,431.5 125.5,426.5C 124.167,426.5 122.833,426.5 121.5,426.5 Z"/></g>
<g><path style="opacity:1" fill="#7c592f" d="M 370.5,426.5 C 369.167,426.5 367.833,426.5 366.5,426.5C 366.5,431.5 366.5,436.5 366.5,441.5C 365.512,436.36 365.179,431.026 365.5,425.5C 367.415,425.216 369.081,425.549 370.5,426.5 Z"/></g>
<g><path style="opacity:1" fill="#e4a24e" d="M 77.5,430.5 C 100.092,442.084 124.092,448.917 149.5,451C 177.576,452.166 205.576,451.332 233.5,448.5C 233.667,463.504 233.5,478.504 233,493.5C 232.064,497.207 230.231,500.374 227.5,503C 221.108,505.612 214.441,506.945 207.5,507C 168.844,509.267 131.178,504.267 94.5,492C 84.1963,488.862 77.8629,482.029 75.5,471.5C 76.4275,457.874 77.0941,444.208 77.5,430.5 Z"/></g>
<g><path style="opacity:1" fill="#e6a34e" d="M 307.5,429.5 C 308.489,434.975 308.822,440.642 308.5,446.5C 293.036,447.105 277.703,446.105 262.5,443.5C 262.5,442.167 262.5,440.833 262.5,439.5C 272.516,438.197 282.516,436.697 292.5,435C 297.857,433.829 302.857,431.996 307.5,429.5 Z"/></g>
<g><path style="opacity:1" fill="#e4a24e" d="M 183.5,429.5 C 198.415,434.484 213.748,437.817 229.5,439.5C 229.5,440.833 229.5,442.167 229.5,443.5C 214.297,446.105 198.964,447.105 183.5,446.5C 183.5,440.833 183.5,435.167 183.5,429.5 Z"/></g>
<g><path style="opacity:1" fill="#e4a24e" d="M 259.5,493.5 C 259.172,482.986 259.506,472.653 260.5,462.5C 261.268,463.263 261.768,464.263 262,465.5C 262.294,473.202 262.96,480.869 264,488.5C 266.601,493.257 270.434,494.591 275.5,492.5C 275.953,493.458 276.619,494.292 277.5,495C 280.146,495.497 282.813,495.664 285.5,495.5C 288.167,494.833 288.167,494.167 285.5,493.5C 285.176,486.646 285.509,479.979 286.5,473.5C 290.128,481.479 293.795,489.479 297.5,497.5C 298.137,486.033 298.97,474.7 300,463.5C 297.828,463.933 295.661,464.266 293.5,464.5C 293.833,465.5 294.5,466.167 295.5,466.5C 296.664,473.142 296.831,479.808 296,486.5C 291.678,479.007 287.845,471.34 284.5,463.5C 284.44,462.957 284.107,462.624 283.5,462.5C 282.502,472.144 282.168,481.81 282.5,491.5C 282.5,492.833 281.833,493.5 280.5,493.5C 279.883,493.389 279.383,493.056 279,492.5C 278.242,482.466 278.409,472.466 279.5,462.5C 277.396,462.201 275.396,462.534 273.5,463.5C 273.855,464.522 274.522,465.189 275.5,465.5C 275.666,472.508 275.5,479.508 275,486.5C 271.656,493.192 268.656,492.858 266,485.5C 265.833,481.833 265.667,478.167 265.5,474.5C 265.571,470.313 266.238,466.313 267.5,462.5C 265.157,461.725 262.823,461.058 260.5,460.5C 259.517,456.702 259.183,452.702 259.5,448.5C 287.089,451.344 314.756,452.177 342.5,451C 367.702,449.095 391.368,442.262 413.5,430.5C 414.904,444.159 415.904,457.826 416.5,471.5C 415.092,480.157 410.425,486.324 402.5,490C 360.989,504.25 318.322,509.584 274.5,506C 265.946,505.937 260.946,501.77 259.5,493.5 Z"/></g>
<g><path style="opacity:1" fill="#151214" d="M 97.5,452.5 C 96.5084,459.648 96.175,466.981 96.5,474.5C 95.209,474.737 94.209,474.404 93.5,473.5C 95.1395,465.498 94.8061,457.665 92.5,450C 92.6667,449.5 92.8333,449 93,448.5C 94.5998,449.866 96.4332,450.866 98.5,451.5C 98.3764,452.107 98.0431,452.44 97.5,452.5 Z"/></g>
<g><path style="opacity:1" fill="#e5a24e" d="M 255.5,469.5 C 251.818,469.665 248.152,469.499 244.5,469C 245.435,466.619 245.768,464.119 245.5,461.5C 247.337,454.826 250.504,448.826 255,443.5C 255.5,452.16 255.666,460.827 255.5,469.5 Z"/></g>
<g><path style="opacity:1" fill="#e1a04d" d="M 243.5,461.5 C 243.5,464.167 243.5,466.833 243.5,469.5C 241.167,469.5 238.833,469.5 236.5,469.5C 236.334,462.159 236.5,454.826 237,447.5C 240.027,451.74 242.194,456.406 243.5,461.5 Z"/></g>
<g><path style="opacity:1" fill="#805c30" d="M 393.5,453.5 C 393.5,463.167 393.5,472.833 393.5,482.5C 391.821,482.715 390.821,482.048 390.5,480.5C 391.117,480.611 391.617,480.944 392,481.5C 392.17,471.991 392.67,462.658 393.5,453.5 Z"/></g>
<g><path style="opacity:1" fill="#73522c" d="M 390.5,455.5 C 391.817,461.678 391.817,468.012 390.5,474.5C 389.893,474.376 389.56,474.043 389.5,473.5C 390.49,467.69 390.823,461.69 390.5,455.5 Z"/></g>
<g><path style="opacity:1" fill="#1f1917" d="M 91.5,476.5 C 90.791,477.404 89.791,477.737 88.5,477.5C 85.909,476.746 84.0757,475.079 83,472.5C 81.2444,463.923 80.2444,455.257 80,446.5C 78.5108,445.576 78.3441,444.576 79.5,443.5C 81.8333,444.833 84.1667,446.167 86.5,447.5C 85.2378,451.313 84.5712,455.313 84.5,459.5C 84.6667,463.167 84.8333,466.833 85,470.5C 85.7542,474.089 87.9209,476.089 91.5,476.5 Z"/></g>
<g><path style="opacity:1" fill="#201a18" d="M 412.5,443.5 C 413.613,444.946 413.78,446.613 413,448.5C 411.093,448.421 409.093,448.754 407,449.5C 406.5,457.827 406.334,466.16 406.5,474.5C 407.552,474.351 408.552,474.517 409.5,475C 407.246,476.256 404.912,477.423 402.5,478.5C 402.167,478.167 401.833,477.833 401.5,477.5C 402.772,473.183 403.438,468.683 403.5,464C 403.167,459.833 402.833,455.667 402.5,451.5C 400.226,451.97 398.226,452.97 396.5,454.5C 395.355,453.224 395.355,451.891 396.5,450.5C 402.193,448.646 407.526,446.312 412.5,443.5 Z"/></g>
<g><path style="opacity:1" fill="#1f1917" d="M 99.5,450.5 C 105.351,453.671 111.684,455.671 118.5,456.5C 118.465,460.766 117.465,461.599 115.5,459C 113.866,458.506 112.199,458.34 110.5,458.5C 110.334,466.174 110.5,473.841 111,481.5C 111.635,482.966 112.469,484.3 113.5,485.5C 110.313,485.939 107.313,485.106 104.5,483C 105.416,482.626 106.25,482.126 107,481.5C 107.832,473.147 107.665,464.813 106.5,456.5C 104.5,455.167 102.5,455.167 100.5,456.5C 99.5344,454.604 99.2011,452.604 99.5,450.5 Z"/></g>
<g><path style="opacity:1" fill="#876131" d="M 259.5,448.5 C 259.183,452.702 259.517,456.702 260.5,460.5C 260.5,461.167 260.5,461.833 260.5,462.5C 259.506,472.653 259.172,482.986 259.5,493.5C 258.167,478.5 258.167,463.5 259.5,448.5 Z"/></g>
<g><path style="opacity:1" fill="#614627" d="M 379.5,464.5 C 378.94,471.121 379.607,477.455 381.5,483.5C 380.5,483.5 379.5,483.5 378.5,483.5C 378.177,476.978 378.51,470.645 379.5,464.5 Z"/></g>
<g><path style="opacity:1" fill="#604627" d="M 243.5,461.5 C 244.167,461.5 244.833,461.5 245.5,461.5C 245.768,464.119 245.435,466.619 244.5,469C 248.152,469.499 251.818,469.665 255.5,469.5C 249.167,470.833 242.833,470.833 236.5,469.5C 238.833,469.5 241.167,469.5 243.5,469.5C 243.5,466.833 243.5,464.167 243.5,461.5 Z"/></g>
<g><path style="opacity:1" fill="#1c1716" d="M 284.5,463.5 C 287.845,471.34 291.678,479.007 296,486.5C 296.831,479.808 296.664,473.142 295.5,466.5C 294.5,466.167 293.833,465.5 293.5,464.5C 295.661,464.266 297.828,463.933 300,463.5C 298.97,474.7 298.137,486.033 297.5,497.5C 293.795,489.479 290.128,481.479 286.5,473.5C 286.44,472.957 286.107,472.624 285.5,472.5C 284.181,479.656 284.181,486.656 285.5,493.5C 288.167,494.167 288.167,494.833 285.5,495.5C 283.833,494.833 282.167,494.167 280.5,493.5C 281.833,493.5 282.5,492.833 282.5,491.5C 283.167,482.167 283.833,472.833 284.5,463.5 Z"/></g>
<g><path style="opacity:1" fill="#1d1817" d="M 129.5,459.5 C 136.988,459.47 141.821,463.137 144,470.5C 144.667,475.167 144.667,479.833 144,484.5C 141.384,492.668 136.55,494.501 129.5,490C 123.99,483.436 122.156,475.936 124,467.5C 125.116,464.244 126.949,461.578 129.5,459.5 Z"/></g>
<g><path style="opacity:1" fill="#e5a34e" d="M 130.5,462.5 C 136.82,462.761 140.32,466.095 141,472.5C 141.977,477.734 141.31,482.734 139,487.5C 135.125,490.22 131.791,489.554 129,485.5C 125.227,477.456 125.727,469.79 130.5,462.5 Z"/></g>
<g><path style="opacity:1" fill="#392b1d" d="M 280.5,493.5 C 282.167,494.167 283.833,494.833 285.5,495.5C 282.813,495.664 280.146,495.497 277.5,495C 276.619,494.292 275.953,493.458 275.5,492.5C 276.826,488.386 277.493,483.886 277.5,479C 277.493,474.114 276.826,469.614 275.5,465.5C 274.522,465.189 273.855,464.522 273.5,463.5C 275.396,462.534 277.396,462.201 279.5,462.5C 278.409,472.466 278.242,482.466 279,492.5C 279.383,493.056 279.883,493.389 280.5,493.5 Z"/></g>
<g><path style="opacity:1" fill="#624727" d="M 324.5,469.5 C 324.181,474.363 324.514,479.03 325.5,483.5C 325.5,486.833 325.5,490.167 325.5,493.5C 324.833,490.5 324.167,487.5 323.5,484.5C 323.179,479.305 323.513,474.305 324.5,469.5 Z"/></g>
<g><path style="opacity:1" fill="#1a1616" d="M 393.5,453.5 C 392.67,462.658 392.17,471.991 392,481.5C 391.617,480.944 391.117,480.611 390.5,480.5C 387.224,474.892 383.557,469.558 379.5,464.5C 378.51,470.645 378.177,476.978 378.5,483.5C 379.5,483.5 380.5,483.5 381.5,483.5C 381.209,484.649 380.376,485.316 379,485.5C 374.462,487.267 373.795,486.6 377,483.5C 377.333,474.5 377.667,465.5 378,456.5C 382.339,461.85 386.172,467.516 389.5,473.5C 389.56,474.043 389.893,474.376 390.5,474.5C 391.817,468.012 391.817,461.678 390.5,455.5C 388.255,455.459 387.588,454.625 388.5,453C 390.218,452.654 391.885,452.154 393.5,451.5C 394.463,451.97 394.463,452.637 393.5,453.5 Z"/></g>
<g><path style="opacity:1" fill="#845f31" d="M 209.5,474.5 C 210.209,473.596 211.209,473.263 212.5,473.5C 212.5,476.5 212.5,479.5 212.5,482.5C 210.821,482.715 209.821,482.048 209.5,480.5C 210.117,480.611 210.617,480.944 211,481.5C 211.167,480.333 211.333,479.167 211.5,478C 211.392,476.319 210.725,475.152 209.5,474.5 Z"/></g>
<g><path style="opacity:1" fill="#191616" d="M 221.5,460.5 C 223.833,460.5 226.167,460.5 228.5,460.5C 228.799,462.604 228.466,464.604 227.5,466.5C 226.571,465.311 226.238,463.978 226.5,462.5C 224.833,462.5 223.167,462.5 221.5,462.5C 220.833,464.819 220.666,467.153 221,469.5C 222.961,472.463 225.294,475.129 228,477.5C 230.143,483.082 228.976,487.915 224.5,492C 222.19,492.497 219.857,492.663 217.5,492.5C 217.481,490.94 217.148,489.44 216.5,488C 216.63,486.941 217.13,486.108 218,485.5C 218.666,489.894 220.999,491.228 225,489.5C 226.457,486.634 226.79,483.634 226,480.5C 216.655,475.396 215.155,468.73 221.5,460.5 Z"/></g>
<g><path style="opacity:1" fill="#1d1816" d="M 357.5,460.5 C 359.5,460.5 361.5,460.5 363.5,460.5C 363.662,462.527 363.495,464.527 363,466.5C 361.812,465.437 361.312,464.103 361.5,462.5C 357.938,462.564 356.271,464.397 356.5,468C 356.749,471.592 358.582,474.092 362,475.5C 365.777,481.675 364.943,487.175 359.5,492C 357.527,492.495 355.527,492.662 353.5,492.5C 353.337,490.143 353.503,487.81 354,485.5C 357.922,491.142 360.422,490.475 361.5,483.5C 360.674,479.832 358.508,477.165 355,475.5C 352.811,469.938 353.644,464.938 357.5,460.5 Z"/></g>
<g><path style="opacity:1" fill="#181315" d="M 372.5,457.5 C 373.097,457.735 373.43,458.235 373.5,459C 372.254,463.525 371.588,468.192 371.5,473C 371.667,478.297 372.334,483.464 373.5,488.5C 370.886,488.705 368.552,488.705 366.5,488.5C 366.808,487.692 367.308,487.025 368,486.5C 368.167,482.333 368.333,478.167 368.5,474C 368.438,469.317 367.772,464.817 366.5,460.5C 368.745,459.792 370.745,458.792 372.5,457.5 Z"/></g>
<g><path style="opacity:1" fill="#31251b" d="M 97.5,452.5 C 97.3336,461.173 97.5002,469.84 98,478.5C 100.301,479.676 100.634,481.01 99,482.5C 96.0495,479.45 92.5495,477.784 88.5,477.5C 89.791,477.737 90.791,477.404 91.5,476.5C 92.1667,475.5 92.8333,474.5 93.5,473.5C 94.209,474.404 95.209,474.737 96.5,474.5C 96.175,466.981 96.5084,459.648 97.5,452.5 Z"/></g>
<g><path style="opacity:1" fill="#1c1716" d="M 209.5,474.5 C 210.725,475.152 211.392,476.319 211.5,478C 211.333,479.167 211.167,480.333 211,481.5C 210.617,480.944 210.117,480.611 209.5,480.5C 209.083,479.876 208.416,479.543 207.5,479.5C 204.459,479.982 201.459,480.649 198.5,481.5C 199.248,486.676 201.748,490.676 206,493.5C 208.706,492.295 210.539,490.295 211.5,487.5C 212.474,489.743 212.808,492.076 212.5,494.5C 209.183,495.221 205.849,495.388 202.5,495C 197.426,491.12 195.093,485.953 195.5,479.5C 195.585,474.012 197.085,469.012 200,464.5C 203.752,461.923 207.919,460.923 212.5,461.5C 212.852,464.073 212.352,466.406 211,468.5C 208.604,463.501 205.604,463.167 202,467.5C 200.735,470.461 199.569,473.461 198.5,476.5C 202.107,477.489 205.774,477.823 209.5,477.5C 209.5,476.5 209.5,475.5 209.5,474.5 Z"/></g>
<g><path style="opacity:1" fill="#976c36" d="M 284.5,463.5 C 283.833,472.833 283.167,482.167 282.5,491.5C 282.168,481.81 282.502,472.144 283.5,462.5C 284.107,462.624 284.44,462.957 284.5,463.5 Z"/></g>
<g><path style="opacity:1" fill="#1f1917" d="M 147.5,462.5 C 148.497,462.47 149.164,462.97 149.5,464C 151.193,469.884 153.027,475.718 155,481.5C 155.748,483.332 156.748,484.999 158,486.5C 160.407,478.697 163.074,471.031 166,463.5C 167.985,473.403 168.818,483.403 168.5,493.5C 169.5,493.5 170.5,493.5 171.5,493.5C 171.719,494.675 171.386,495.675 170.5,496.5C 168.298,495.22 166.132,495.22 164,496.5C 163.517,495.552 163.351,494.552 163.5,493.5C 164.5,493.5 165.5,493.5 166.5,493.5C 166.126,487.427 165.293,481.427 164,475.5C 162.254,481.961 160.087,488.295 157.5,494.5C 154.234,487.625 151.4,480.625 149,473.5C 148.169,479.859 148.336,486.193 149.5,492.5C 151.801,493.269 151.967,494.269 150,495.5C 147.907,493.886 145.74,493.053 143.5,493C 144.025,492.308 144.692,491.808 145.5,491.5C 146.378,481.843 147.045,472.176 147.5,462.5 Z"/></g>
<g><path style="opacity:1" fill="#8c6433" d="M 193.5,465.5 C 192.855,475.932 192.189,486.265 191.5,496.5C 190.858,485.779 191.525,475.446 193.5,465.5 Z"/></g>
<g><path style="opacity:1" fill="#574024" d="M 286.5,473.5 C 285.509,479.979 285.176,486.646 285.5,493.5C 284.181,486.656 284.181,479.656 285.5,472.5C 286.107,472.624 286.44,472.957 286.5,473.5 Z"/></g>
<g><path style="opacity:1" fill="#1a1516" d="M 260.5,460.5 C 262.823,461.058 265.157,461.725 267.5,462.5C 266.238,466.313 265.571,470.313 265.5,474.5C 265.667,478.167 265.833,481.833 266,485.5C 268.656,492.858 271.656,493.192 275,486.5C 275.5,479.508 275.666,472.508 275.5,465.5C 276.826,469.614 277.493,474.114 277.5,479C 277.493,483.886 276.826,488.386 275.5,492.5C 270.434,494.591 266.601,493.257 264,488.5C 262.96,480.869 262.294,473.202 262,465.5C 261.768,464.263 261.268,463.263 260.5,462.5C 260.5,461.833 260.5,461.167 260.5,460.5 Z"/></g>
<g><path style="opacity:1" fill="#1b1716" d="M 193.5,465.5 C 191.525,475.446 190.858,485.779 191.5,496.5C 186.106,489.548 181.606,481.882 178,473.5C 177.222,481.326 177.555,488.993 179,496.5C 177,495.167 175,495.167 173,496.5C 174.026,485.633 174.859,474.633 175.5,463.5C 179.535,471.437 184.035,479.104 189,486.5C 189.5,479.842 189.666,473.175 189.5,466.5C 188.5,466.5 187.5,466.5 186.5,466.5C 186.5,465.5 186.5,464.5 186.5,463.5C 189.247,463.187 191.914,463.52 194.5,464.5C 194.376,465.107 194.043,465.44 193.5,465.5 Z"/></g>
<g><path style="opacity:1" fill="#221b18" d="M 327.5,479.5 C 327.719,478.325 327.386,477.325 326.5,476.5C 325.526,478.743 325.192,481.076 325.5,483.5C 324.514,479.03 324.181,474.363 324.5,469.5C 324.215,467.712 324.548,466.045 325.5,464.5C 328.029,471.948 330.862,479.282 334,486.5C 336.438,478.804 338.938,471.138 341.5,463.5C 342.511,471.145 343.345,478.811 344,486.5C 344.151,489.119 344.985,491.453 346.5,493.5C 344.535,494.292 342.535,494.959 340.5,495.5C 340.167,495.167 339.833,494.833 339.5,494.5C 340.896,493.148 341.563,491.481 341.5,489.5C 340.868,485.183 340.368,480.85 340,476.5C 336.994,482.517 334.994,488.851 334,495.5C 331.402,490.359 329.235,485.025 327.5,479.5 Z"/></g>
<g><path style="opacity:1" fill="#856031" d="M 327.5,479.5 C 326.833,480.833 326.167,482.167 325.5,483.5C 325.192,481.076 325.526,478.743 326.5,476.5C 327.386,477.325 327.719,478.325 327.5,479.5 Z"/></g>
<g><path style="opacity:1" fill="#171415" d="M 323.5,484.5 C 324.167,487.5 324.833,490.5 325.5,493.5C 328.174,495.001 328.007,496.001 325,496.5C 321.839,497.897 318.839,497.563 316,495.5C 309.655,498.662 305.655,496.662 304,489.5C 303.812,480.68 303.145,472.013 302,463.5C 304.147,464.113 306.314,464.779 308.5,465.5C 308.192,466.308 307.692,466.975 307,467.5C 306.333,473.833 306.333,480.167 307,486.5C 307.452,489.149 308.286,491.649 309.5,494C 311.259,494.798 312.926,494.631 314.5,493.5C 317.34,485.414 318.174,477.081 317,468.5C 316.355,467.354 315.522,466.354 314.5,465.5C 316.833,465.5 319.167,465.5 321.5,465.5C 320.758,466.287 319.925,466.953 319,467.5C 318.333,476.167 318.333,484.833 319,493.5C 320.324,494.88 321.657,495.214 323,494.5C 323.498,491.183 323.665,487.85 323.5,484.5 Z"/></g>
</svg>
